# xmcd
#
# Track frame offsets:
#	150
#	15782
#	43375
#	67403
#	81083
#	96357
#	119818
#	145251
#	163329
#	188811
#	208613
#	232648
#
# Disc length: 3436 seconds
#
# Revision: 11
# Processed by: cddbd v1.5.2PL0 Copyright (c) Steve Scherf et al.
# Submitted via: audiograbber 1.83.01
#
DISCID=ab0d6a0c
DTITLE=Diana Krall - From This Moment On
DYEAR=2006
DGENRE=Jazz
TTITLE0=It Could Happen To You
TTITLE1=Isn't This A Lovely Day
TTITLE2=How Insensitive
TTITLE3=Exactly Like You
TTITLE4=From This Moment On
TTITLE5=I Was Doing Alright
TTITLE6=Little Girl Blue
TTITLE7=Day In Day Out
TTITLE8=Willow Weep For Me
TTITLE9=Come Dance With Me
TTITLE10=It Was A Beautiful Day In August/You Can Depend On Me
TTITLE11=The Boulevard Of Broken Dreams
EXTD=
EXTT0=
EXTT1=
EXTT2=
EXTT3=
EXTT4=
EXTT5=
EXTT6=
EXTT7=
EXTT8=
EXTT9=
EXTT10=
EXTT11=
PLAYORDER=
